<?xml version="1.0" encoding="UTF-8" standalone="no"?><!DOCTYPE svg PUBLIC "-//W3C//DTD SVG 1.1//EN" "http://www.w3.org/Graphics/SVG/1.1/DTD/svg11.dtd"><svg width="100%" height="100%" viewBox="0 0 656 393" version="1.1" xmlns="http://www.w3.org/2000/svg" xmlns:xlink="http://www.w3.org/1999/xlink" xml:space="preserve" xmlns:serif="http://www.serif.com/" style="fill-rule:evenodd;clip-rule:evenodd;stroke-linejoin:round;stroke-miterlimit:1.41421;"><path d="M523.321,122.517c-10.621,-4.4 -22.854,-1.967 -30.983,6.166l-97.834,97.846l-97.842,-97.846c-8.129,-8.133 -20.354,-10.566 -30.975,-6.166c-10.629,4.404 -17.554,14.766 -17.554,26.266l0,146.292l-69.408,-69.421c-5.333,-5.333 -12.567,-8.329 -20.104,-8.329c-7.542,0 -14.771,2.996 -20.104,8.329l-69.413,69.421l0,-146.292l0,-28.433l-56.85,0l0,243.362c0,11.496 6.925,21.867 17.546,26.259c10.625,4.404 22.85,1.971 30.979,-6.159l97.842,-97.854l97.837,97.854c8.129,8.13 20.363,10.563 30.98,6.159c10.62,-4.392 17.55,-14.763 17.55,-26.259l0,-146.299l69.412,69.42c5.329,5.338 12.563,8.334 20.104,8.334c7.538,0 14.775,-2.996 20.104,-8.334l69.409,-69.42l0,174.724l56.858,0l0,-28.425l0,-214.929c0,-11.5 -6.925,-21.862 -17.554,-26.266Z" style="fill:url(#_Linear1);fill-rule:nonzero;"/><path d="M21.804,91.513l-21.804,-91.513l18.913,0l13.779,62.867l16.662,-62.867l22.021,0l16.025,63.921l14.021,-63.921l18.6,0l-22.167,91.513l-19.683,0l-18.163,-68.417l-18.133,68.417l-20.071,0Z" style="fill:#9d9fa2;fill-rule:nonzero;"/><path d="M128.233,25.217l17.513,0l0,66.291l-17.513,0l0,-66.291Zm0,-25.217l17.513,0l0,16.258l-17.513,0l0,-16.258Z" style="fill:#9d9fa2;fill-rule:nonzero;"/><rect x="163.754" y="0" width="17.513" height="91.512" style="fill:#9d9fa2;"/><path d="M199.671,91.513l0,-91.513l18.179,0l21.658,64.8c2,6.033 3.459,10.558 4.371,13.55c1.038,-3.325 2.667,-8.225 4.879,-14.671l21.959,-63.679l16.25,0l0,91.513l-11.654,0l0,-76.563l-26.634,76.563l-10.925,0l-26.429,-77.884l0,77.884l-11.654,0Z" style="fill:#7d7e77;fill-rule:nonzero;"/><path d="M312.358,58.367c0,8.504 1.85,14.866 5.567,19.096c3.708,4.233 8.383,6.349 14.013,6.349c5.591,0 10.237,-2.133 13.954,-6.379c3.712,-4.25 5.571,-10.733 5.571,-19.441c0,-8.213 -1.871,-14.43 -5.601,-18.663c-3.737,-4.229 -8.375,-6.346 -13.924,-6.346c-5.63,0 -10.305,2.104 -14.013,6.313c-3.717,4.208 -5.567,10.562 -5.567,19.071m-11.525,0c0,-12.288 3.417,-21.379 10.246,-27.296c5.7,-4.913 12.654,-7.367 20.859,-7.367c9.124,0 16.575,2.988 22.362,8.963c5.783,5.971 8.679,14.225 8.679,24.758c0,8.542 -1.275,15.254 -3.842,20.146c-2.558,4.891 -6.283,8.691 -11.179,11.392c-4.891,2.712 -10.233,4.062 -16.02,4.062c-9.284,0 -16.788,-2.971 -22.517,-8.933c-5.721,-5.946 -8.588,-14.53 -8.588,-25.725" style="fill:#7d7e77;fill-rule:nonzero;"/><path d="M383.45,58.367c0,8.504 1.858,14.866 5.567,19.096c3.712,4.233 8.391,6.349 14.016,6.349c5.592,0 10.246,-2.133 13.955,-6.379c3.716,-4.25 5.566,-10.733 5.566,-19.441c0,-8.213 -1.862,-14.43 -5.6,-18.663c-3.733,-4.229 -8.371,-6.346 -13.921,-6.346c-5.625,0 -10.304,2.104 -14.016,6.313c-3.709,4.208 -5.567,10.562 -5.567,19.071m-11.517,0c0,-12.288 3.413,-21.379 10.242,-27.296c5.704,-4.913 12.658,-7.367 20.858,-7.367c9.121,0 16.575,2.988 22.367,8.963c5.787,5.971 8.679,14.225 8.679,24.758c0,8.542 -1.279,15.254 -3.841,20.146c-2.559,4.891 -6.292,8.691 -11.184,11.392c-4.892,2.712 -10.233,4.062 -16.021,4.062c-9.283,0 -16.791,-2.971 -22.512,-8.933c-5.725,-5.946 -8.588,-14.53 -8.588,-25.725" style="fill:#7d7e77;fill-rule:nonzero;"/><path d="M447.117,91.513l0,-66.296l10.137,0l0,10.012c2.579,-4.691 4.967,-7.787 7.154,-9.287c2.188,-1.488 4.6,-2.238 7.221,-2.238c3.792,0 7.646,1.204 11.563,3.625l-3.955,10.404c-2.741,-1.629 -5.479,-2.45 -8.212,-2.45c-2.45,0 -4.654,0.746 -6.604,2.225c-1.95,1.48 -3.346,3.53 -4.179,6.15c-1.246,3.996 -1.871,8.375 -1.871,13.121l0,34.734l-11.254,0Z" style="fill:#7d7e77;fill-rule:nonzero;"/><path d="M498.183,52.008l37.129,0c-0.5,-5.591 -1.924,-9.783 -4.262,-12.579c-3.587,-4.342 -8.233,-6.512 -13.954,-6.512c-5.179,0 -9.529,1.733 -13.054,5.2c-3.534,3.458 -5.484,8.096 -5.859,13.891m37,18.109l11.604,1.512c-1.829,6.779 -5.22,12.038 -10.179,15.784c-4.941,3.741 -11.27,5.612 -18.966,5.612c-9.696,0 -17.375,-2.988 -23.059,-8.963c-5.679,-5.97 -8.512,-14.354 -8.512,-25.137c0,-11.154 2.871,-19.821 8.604,-25.975c5.746,-6.167 13.192,-9.246 22.346,-9.246c8.862,0 16.1,3.013 21.716,9.054c5.621,6.034 8.425,14.525 8.425,25.467c0,0.667 -0.012,1.671 -0.066,3.004l-49.509,0c0.417,7.3 2.488,12.888 6.192,16.763c3.721,3.879 8.342,5.82 13.888,5.82c4.133,0 7.654,-1.091 10.575,-3.27c2.925,-2.179 5.233,-5.659 6.941,-10.425" style="fill:#7d7e77;fill-rule:nonzero;"/><path d="M563.754,117.558l25.583,-3.1c0.813,6.513 2.992,11.479 6.55,14.917c3.555,3.446 7.859,5.163 12.909,5.163c5.425,0 10,-2.059 13.708,-6.188c3.713,-4.121 5.567,-9.683 5.567,-16.679c0,-6.617 -1.775,-11.867 -5.329,-15.742c-3.554,-3.875 -7.884,-5.808 -12.996,-5.808c-3.363,0 -7.383,0.658 -12.063,1.966l2.917,-21.337c7.133,0.192 12.579,-1.358 16.333,-4.654c3.75,-3.296 5.629,-7.675 5.629,-13.138c0,-4.646 -1.375,-8.346 -4.133,-11.108c-2.762,-2.763 -6.429,-4.142 -10.996,-4.142c-4.516,0 -8.371,1.567 -11.562,4.713c-3.192,3.142 -5.138,7.733 -5.825,13.762l-24.338,-4.15c1.688,-8.375 4.242,-15.062 7.655,-20.071c3.416,-5.012 8.166,-8.945 14.275,-11.808c6.108,-2.866 12.954,-4.304 20.533,-4.304c12.962,0 23.358,4.146 31.187,12.429c6.45,6.779 9.68,14.438 9.68,22.971c0,12.121 -6.609,21.779 -19.809,28.996c7.838,1.696 14.1,5.467 18.8,11.337c4.7,5.867 7.046,12.959 7.046,21.259c0,12.05 -4.408,22.321 -13.217,30.812c-8.812,8.492 -19.783,12.738 -32.908,12.738c-12.446,0 -22.754,-3.58 -30.95,-10.738c-8.183,-7.162 -12.938,-16.529 -14.246,-28.096Z" style="fill:url(#_Linear2);fill-rule:nonzero;"/><defs><linearGradient id="_Linear1" x1="0" y1="0" x2="1" y2="0" gradientUnits="userSpaceOnUse" gradientTransform="matrix(0,305.12,-305.12,0,276.563,142.705)"><stop offset="0" style="stop-color:#8bbde6;stop-opacity:1"/><stop offset="1" style="stop-color:#3b6c92;stop-opacity:1"/></linearGradient><linearGradient id="_Linear2" x1="0" y1="0" x2="1" y2="0" gradientUnits="userSpaceOnUse" gradientTransform="matrix(0,250.165,-250.165,0,609.412,-54.7844)"><stop offset="0" style="stop-color:#fff;stop-opacity:1"/><stop offset="1" style="stop-color:#231f20;stop-opacity:1"/></linearGradient></defs></svg>